<svg id="Layer_1" data-name="Layer 1" xmlns="http://www.w3.org/2000/svg" viewBox="0 0 1024 1024"><path d="M842,454a8,8,0,0,0-8-8H774a8,8,0,0,0-8,8c0,140.3-113.7,254-254,254S258,594.3,258,454a8,8,0,0,0-8-8H190a8,8,0,0,0-8,8c0,168.7,126.6,307.9,290,327.6V884H326.7C313,884,302,898.3,302,916v36c0,4.4,2.8,8,6.2,8H715.8c3.4,0,6.2-3.6,6.2-8V916c0-17.7-11-32-24.7-32H548V782.1c165.3-18,294-158,294-328.1ZM512,624c93.9,0,170-75.2,170-168V232c0-92.8-76.1-168-170-168S342,139.2,342,232V456C342,548.8,418.1,624,512,624ZM418,232c0-50.6,41.9-92,94-92s94,41.4,94,92V456c0,50.6-41.9,92-94,92s-94-41.4-94-92Z"/></svg>