<svg id="Layer_1" data-name="Layer 1" xmlns="http://www.w3.org/2000/svg" viewBox="0 0 1024 1024"><path d="M957.48,109,915.05,66.52a8,8,0,0,0-11.31,0L682,288.26V232c0-92.8-76.1-168-170-168S342,139.2,342,232V456a166.58,166.58,0,0,0,51.65,120.61l-59.11,59.11A253.17,253.17,0,0,1,258,454a8,8,0,0,0-8-8H190a8,8,0,0,0-8,8,329,329,0,0,0,98.8,235.46L66.52,903.74a8,8,0,0,0,0,11.31L109,957.48a8,8,0,0,0,11.31,0L957.48,120.26A8,8,0,0,0,957.48,109ZM418,456V232c0-50.6,41.9-92,94-92s94,41.4,94,92V364.26L447.42,522.84A91,91,0,0,1,418,456Z"/><path d="M834,446H774a8,8,0,0,0-8,8c0,140.3-113.7,254-254,254a257.7,257.7,0,0,1-32.95-2.12L415.33,769.6a327.83,327.83,0,0,0,56.67,12V884H326.7C313,884,302,898.3,302,916v36c0,4.4,2.8,8,6.2,8H715.8c3.4,0,6.2-3.6,6.2-8V916c0-17.7-11-32-24.7-32H548V782.1c165.3-18,294-158,294-328.1A8,8,0,0,0,834,446Z"/></svg>