<svg id="Layer_1" data-name="Layer 1" xmlns="http://www.w3.org/2000/svg" viewBox="0 0 1024 1024"><path d="M957.48,109,915.05,66.52a8,8,0,0,0-11.31,0L776.43,193.83A64,64,0,0,0,720,160H128a64.06,64.06,0,0,0-64,64V800a64.09,64.09,0,0,0,45.11,61.15L66.52,903.74a8,8,0,0,0,0,11.31L109,957.48a8,8,0,0,0,11.31,0L957.48,120.26A8,8,0,0,0,957.48,109ZM136,792V232H712v26.26L178.26,792Z"/><rect x="200" y="296" width="128" height="64" rx="8"/><path d="M912,302.3l-69.23,39.86L712,472.93V792H392.93l-72,72H720a64.06,64.06,0,0,0,64-64V648l128,73.7c21.3,12.3,48-3.1,48-27.6V330C960,305.4,933.3,290,912,302.3ZM888,625,784,565.2V458.9L888,399Z"/></svg>